<?xml version="1.0" encoding="UTF-8" standalone="no"?>
<svg xmlns:rdf="http://www.w3.org/1999/02/22-rdf-syntax-ns#" xmlns="http://www.w3.org/2000/svg" height="768" width="1024" version="1.1" xmlns:cc="http://creativecommons.org/ns#" xmlns:dc="http://purl.org/dc/elements/1.1/">
 <title>Buck converter operaton</title>
 <metadata>
  <rdf:RDF>
   <cc:Work rdf:about="">
    <dc:format>image/svg+xml</dc:format>
    <dc:type rdf:resource="http://purl.org/dc/dcmitype/StillImage"/>
    <dc:title>Buck converter operaton</dc:title>
    <cc:license rdf:resource="http://creativecommons.org/licenses/by-sa/3.0/"/>
    <dc:description>The two operating modes of a buck converter</dc:description>
    <dc:date>2014-12-05</dc:date>
    <dc:language>en</dc:language>
   </cc:Work>
   <cc:License rdf:about="http://creativecommons.org/licenses/by-sa/3.0/">
    <cc:permits rdf:resource="http://creativecommons.org/ns#Reproduction"/>
    <cc:permits rdf:resource="http://creativecommons.org/ns#Distribution"/>
    <cc:requires rdf:resource="http://creativecommons.org/ns#Notice"/>
    <cc:requires rdf:resource="http://creativecommons.org/ns#Attribution"/>
    <cc:permits rdf:resource="http://creativecommons.org/ns#DerivativeWorks"/>
    <cc:requires rdf:resource="http://creativecommons.org/ns#ShareAlike"/>
   </cc:License>
  </rdf:RDF>
 </metadata>
 <text style="font-size:56px;font-family:sans;writing-mode:lr-tb;fill:#000000;fill-rule:nonzero;text-anchor:start;line-height:125%;font-stretch:normal;font-variant:normal;font-weight:normal;font-style:normal;text-align:start;" xml:space="preserve" y="439.90527" x="99.667099"><tspan x="99.667099" style="font-family:Sans;" y="439.90527">Off-state</tspan></text>
 <text style="font-size:56px;font-family:sans;writing-mode:lr-tb;fill:#000000;fill-rule:nonzero;text-anchor:start;line-height:125%;font-stretch:normal;font-variant:normal;font-weight:normal;font-style:normal;text-align:start;" xml:space="preserve" y="83.166229" x="99.667099"><tspan x="99.667099" style="font-family:Sans;" y="83.166229">On-state</tspan></text>
 <path d="m493.78,493.28-84.804,0,0-6.6606,84.804,0,0,6.6606z" style="fill:#000000;"/>
 <g style="fill:#000000;" transform="matrix(0.06784295,0,0,0.06660509,-75.085352,-51.884202)">
  <path d="m8385,11685-4250,0,0-50,0-50,4250,0,0,50,0,50z"/>
  <path d="m4135,11635,0,50-9-1-8-2-8-4-7-5-6-6-5-7-4-8-2-8-1-9,0,0,50,0z"/>
  <path d="m4085,11635,0-3500,50,0,50,0,0,3500-50,0-50,0z"/>
  <path d="m4135,8135-50,0,1-9,2-8,4-8,5-7,6-6,7-5,8-4,8-2,9-1,0,0,0,50z"/>
  <path d="m4135,8085,1500,0,0,50,0,50-1500,0,0-50,0-50z"/>
  <path d="m5635,8135,16,47-9,2-7,1,0-50z"/>
  <path d="m5619,8088,1500-500,16,47,16,47-1500,500-16-47-16-47z"/>
 </g>
 <g style="fill:#ff0000;" transform="matrix(0.06784295,0,0,0.06660509,-75.085352,-51.884202)">
  <path d="m8385,8085,1250,0,0,50,0,50-1250,0,0-50,0-50z"/>
  <path d="m9635,8135,50,3-1,9-3,8-4,8-6,7-6,5-8,5-8,3-8,2-6,0,0-50z"/>
  <path d="m9585,8132,6-88,50,3,50,3-6,88-50-3-50-3z"/>
  <path d="m9641,8047-50-3,1-7,49,10z"/>
  <path d="m9592,8037,16-76,48,10,49,10-15,76-49-10-49-10z"/>
  <path d="m9656,7971-48-10,1-6,47,16z"/>
  <path d="m9609,7955,11-34,48,16,47,16-11,34-48-16-47-16z"/>
  <path d="m9668,7937-48-16,2-4,46,20z"/>
  <path d="m9622,7917,13-30,46,19,46,20-13,31-46-20-46-20z"/>
  <path d="m9681,7906-46-19,2-4,44,23z"/>
  <path d="m9637,7883,15-28,44,24,44,24-15,27-44-24-44-23z"/>
  <path d="m9696,7879-44-24,3-4,41,28z"/>
  <path d="m9655,7851,17-25,41,28,42,28-17,25-42-28-41-28z"/>
  <path d="m9713,7854-41-28,3-4,38,32z"/>
  <path d="m9675,7822,18-22,38,32,39,32-18,22-39-32-38-32z"/>
  <path d="m9731,7832-38-32,4-4,34,36z"/>
  <path d="m9697,7796,19-19,35,36,35,36-20,19-35-36-34-36z"/>
  <path d="m9751,7813-35-36,4-4,31,40z"/>
  <path d="m9720,7773,21-16,31,40,30,39-20,16-31-39-31-40z"/>
  <path d="m9772,7797-31-40,5-3,26,43z"/>
  <path d="m9746,7754,21-13,26,42,26,43-21,13-26-42-26-43z"/>
  <path d="m9793,7783-26-42,5-3,21,45z"/>
  <path d="m9772,7738,23-10,21,45,20,46-22,10-21-46-21-45z"/>
  <path d="m9816,7773-21-45,5-2,16,47z"/>
  <path d="m9800,7726,23-8,15,48,16,47-23,8-15-48-16-47z"/>
  <path d="m9838,7766-15-48,6-1,9,49z"/>
  <path d="m9829,7717,23-5,10,49,9,50-23,4-10-49-9-49z"/>
  <path d="m9862,7761-10-49,6,0,4,49z"/>
  <path d="m9858,7712,24-2,3,50,3,50-23,1-3-50-4-49z"/>
  <path d="m9885,7760-3-50,6,0-3,50z"/>
  <path d="m9888,7710,24,2-4,49-3,50-23-1,3-50,3-50z"/>
  <path d="m9908,7761,4-49,6,0-10,49z"/>
  <path d="m9918,7712,23,5-9,49-10,49-23-4,9-50,10-49z"/>
  <path d="m9932,7766,9-49,6,1-15,48z"/>
  <path d="m9947,7718,23,8-16,47-15,48-23-8,16-47,15-48z"/>
  <path d="m9954,7773,16-47,5,2-21,45z"/>
  <path d="m9975,7728,23,10-21,45-21,46-22-10,20-46,21-45z"/>
  <path d="m9977,7783,21-45,5,3-26,42z"/>
  <path d="m10003,7741,21,13-26,43-26,42-21-13,26-43,26-42z"/>
  <path d="m9998,7797,26-43,5,3-31,40z"/>
  <path d="m10029,7757,21,16-31,40-31,39-20-16,30-39,31-40z"/>
  <path d="m10019,7813,31-40,4,4-35,36z"/>
  <path d="m10054,7777,19,19-34,36-35,36-20-19,35-36,35-36z"/>
  <path d="m10039,7832,34-36,4,4-38,32z"/>
  <path d="m10077,7800,18,22-38,32-39,32-18-22,39-32,38-32z"/>
  <path d="m10057,7854,38-32,3,4-41,28z"/>
  <path d="m10098,7826,17,25-41,28-42,28-17-25,42-28,41-28z"/>
  <path d="m10074,7879,41-28,3,4-44,24z"/>
  <path d="m10118,7855,15,28-44,23-44,24-15-27,44-24,44-24z"/>
  <path d="m10089,7906,44-23,2,4-46,19z"/>
  <path d="m10135,7887,13,30-46,20-46,20-13-31,46-20,46-19z"/>
  <path d="m10102,7937,46-20,2,4-48,16z"/>
  <path d="m10150,7921,11,34-47,16-48,16-11-34,47-16,48-16z"/>
  <path d="m10114,7971,47-16,1,6-48,10z"/>
  <path d="m10162,7961,16,76-49,10-49,10-15-76,49-10,48-10z"/>
  <path d="m10129,8047,49-10,1,7-50,3z"/>
  <path d="m10179,8044,6,88-50,3-50,3-6-88,50-3,50-3z"/>
  <path d="m10135,8135,50,3-1,9-3,8-4,8-6,7-6,5-8,5-8,3-8,2-9,0-9-1-8-3-8-4-7-6-5-6-5-8-3-8-2-8,0-3,50-3z"/>
  <path d="m10085,8132,6-88,50,3,50,3-6,88-50-3-50-3z"/>
  <path d="m10141,8047-50-3,1-7,49,10z"/>
  <path d="m10092,8037,16-76,48,10,49,10-15,76-49-10-49-10z"/>
  <path d="m10156,7971-48-10,1-6,47,16z"/>
  <path d="m10109,7955,11-34,48,16,47,16-11,34-48-16-47-16z"/>
  <path d="m10168,7937-48-16,2-4,46,20z"/>
  <path d="m10122,7917,13-30,46,19,46,20-13,31-46-20-46-20z"/>
  <path d="m10181,7906-46-19,2-4,44,23z"/>
  <path d="m10137,7883,15-28,44,24,44,24-15,27-44-24-44-23z"/>
  <path d="m10196,7879-44-24,3-4,41,28z"/>
  <path d="m10155,7851,17-25,41,28,42,28-17,25-42-28-41-28z"/>
  <path d="m10213,7854-41-28,3-4,38,32z"/>
  <path d="m10175,7822,18-22,38,32,39,32-18,22-39-32-38-32z"/>
  <path d="m10231,7832-38-32,4-4,34,36z"/>
  <path d="m10197,7796,19-19,35,36,35,36-20,19-35-36-34-36z"/>
  <path d="m10251,7813-35-36,4-4,31,40z"/>
  <path d="m10220,7773,21-16,31,40,30,39-20,16-31-39-31-40z"/>
  <path d="m10272,7797-31-40,5-3,26,43z"/>
  <path d="m10246,7754,21-13,26,42,26,43-21,13-26-42-26-43z"/>
  <path d="m10293,7783-26-42,5-3,21,45z"/>
  <path d="m10272,7738,23-10,21,45,20,46-22,10-21-46-21-45z"/>
  <path d="m10316,7773-21-45,5-2,16,47z"/>
  <path d="m10300,7726,23-8,15,48,16,47-23,8-15-48-16-47z"/>
  <path d="m10338,7766-15-48,6-1,9,49z"/>
  <path d="m10329,7717,23-5,10,49,9,50-23,4-10-49-9-49z"/>
  <path d="m10362,7761-10-49,6,0,4,49z"/>
  <path d="m10358,7712,24-2,3,50,3,50-23,1-3-50-4-49z"/>
  <path d="m10385,7760-3-50,6,0-3,50z"/>
  <path d="m10388,7710,24,2-4,49-3,50-23-1,3-50,3-50z"/>
  <path d="m10408,7761,4-49,6,0-10,49z"/>
  <path d="m10418,7712,23,5-9,49-10,49-23-4,9-50,10-49z"/>
  <path d="m10432,7766,9-49,6,1-15,48z"/>
  <path d="m10447,7718,23,8-16,47-15,48-23-8,16-47,15-48z"/>
  <path d="m10454,7773,16-47,5,2-21,45z"/>
  <path d="m10475,7728,23,10-21,45-21,46-22-10,20-46,21-45z"/>
  <path d="m10477,7783,21-45,5,3-26,42z"/>
  <path d="m10503,7741,21,13-26,43-26,42-21-13,26-43,26-42z"/>
  <path d="m10498,7797,26-43,5,3-31,40z"/>
  <path d="m10529,7757,21,16-31,40-31,39-20-16,30-39,31-40z"/>
  <path d="m10519,7813,31-40,4,4-35,36z"/>
  <path d="m10554,7777,19,19-34,36-35,36-20-19,35-36,35-36z"/>
  <path d="m10539,7832,34-36,4,4-38,32z"/>
  <path d="m10577,7800,18,22-38,32-39,32-18-22,39-32,38-32z"/>
  <path d="m10557,7854,38-32,3,4-41,28z"/>
  <path d="m10598,7826,17,25-41,28-42,28-17-25,42-28,41-28z"/>
  <path d="m10574,7879,41-28,3,4-44,24z"/>
  <path d="m10618,7855,15,28-44,23-44,24-15-27,44-24,44-24z"/>
  <path d="m10589,7906,44-23,2,4-46,19z"/>
  <path d="m10635,7887,13,30-46,20-46,20-13-31,46-20,46-19z"/>
  <path d="m10602,7937,46-20,2,4-48,16z"/>
  <path d="m10650,7921,11,34-47,16-48,16-11-34,47-16,48-16z"/>
  <path d="m10614,7971,47-16,1,6-48,10z"/>
  <path d="m10662,7961,16,76-49,10-49,10-15-76,49-10,48-10z"/>
  <path d="m10629,8047,49-10,1,7-50,3z"/>
  <path d="m10679,8044,6,88-50,3-50,3-6-88,50-3,50-3z"/>
  <path d="m10635,8135,50,3-1,9-3,8-4,8-6,7-6,5-8,5-8,3-8,2-9,0-9-1-8-3-8-4-7-6-5-6-5-8-3-8-2-8,0-3,50-3z"/>
  <path d="m10585,8132,6-88,50,3,50,3-6,88-50-3-50-3z"/>
  <path d="m10641,8047-50-3,1-7,49,10z"/>
  <path d="m10592,8037,16-76,48,10,49,10-15,76-49-10-49-10z"/>
  <path d="m10656,7971-48-10,1-6,47,16z"/>
  <path d="m10609,7955,11-34,48,16,47,16-11,34-48-16-47-16z"/>
  <path d="m10668,7937-48-16,2-4,46,20z"/>
  <path d="m10622,7917,13-30,46,19,46,20-13,31-46-20-46-20z"/>
  <path d="m10681,7906-46-19,2-4,44,23z"/>
  <path d="m10637,7883,15-28,44,24,44,24-15,27-44-24-44-23z"/>
  <path d="m10696,7879-44-24,3-4,41,28z"/>
  <path d="m10655,7851,17-25,41,28,42,28-17,25-42-28-41-28z"/>
  <path d="m10713,7854-41-28,3-4,38,32z"/>
  <path d="m10675,7822,18-22,38,32,39,32-18,22-39-32-38-32z"/>
  <path d="m10731,7832-38-32,4-4,34,36z"/>
  <path d="m10697,7796,19-19,35,36,35,36-20,19-35-36-34-36z"/>
  <path d="m10751,7813-35-36,4-4,31,40z"/>
  <path d="m10720,7773,21-16,31,40,30,39-20,16-31-39-31-40z"/>
  <path d="m10772,7797-31-40,5-3,26,43z"/>
  <path d="m10746,7754,21-13,26,42,26,43-21,13-26-42-26-43z"/>
  <path d="m10793,7783-26-42,5-3,21,45z"/>
  <path d="m10772,7738,23-10,21,45,20,46-22,10-21-46-21-45z"/>
  <path d="m10816,7773-21-45,5-2,16,47z"/>
  <path d="m10800,7726,23-8,15,48,16,47-23,8-15-48-16-47z"/>
  <path d="m10838,7766-15-48,6-1,9,49z"/>
  <path d="m10829,7717,23-5,10,49,9,50-23,4-10-49-9-49z"/>
  <path d="m10862,7761-10-49,6,0,4,49z"/>
  <path d="m10858,7712,24-2,3,50,3,50-23,1-3-50-4-49z"/>
  <path d="m10885,7760-3-50,6,0-3,50z"/>
  <path d="m10888,7710,24,2-4,49-3,50-23-1,3-50,3-50z"/>
  <path d="m10908,7761,4-49,6,0-10,49z"/>
  <path d="m10918,7712,23,5-9,49-10,49-23-4,9-50,10-49z"/>
  <path d="m10932,7766,9-49,6,1-15,48z"/>
  <path d="m10947,7718,23,8-16,47-15,48-23-8,16-47,15-48z"/>
  <path d="m10954,7773,16-47,5,2-21,45z"/>
  <path d="m10975,7728,23,10-21,45-21,46-22-10,20-46,21-45z"/>
  <path d="m10977,7783,21-45,5,3-26,42z"/>
  <path d="m11003,7741,21,13-26,43-26,42-21-13,26-43,26-42z"/>
  <path d="m10998,7797,26-43,5,3-31,40z"/>
  <path d="m11029,7757,21,16-31,40-31,39-20-16,30-39,31-40z"/>
  <path d="m11019,7813,31-40,4,4-35,36z"/>
  <path d="m11054,7777,19,19-34,36-35,36-20-19,35-36,35-36z"/>
  <path d="m11039,7832,34-36,4,4-38,32z"/>
  <path d="m11077,7800,18,22-38,32-39,32-18-22,39-32,38-32z"/>
  <path d="m11057,7854,38-32,3,4-41,28z"/>
  <path d="m11098,7826,17,25-41,28-42,28-17-25,42-28,41-28z"/>
  <path d="m11074,7879,41-28,3,4-44,24z"/>
  <path d="m11118,7855,15,28-44,23-44,24-15-27,44-24,44-24z"/>
  <path d="m11089,7906,44-23,2,4-46,19z"/>
  <path d="m11135,7887,13,30-46,20-46,20-13-31,46-20,46-19z"/>
  <path d="m11102,7937,46-20,2,4-48,16z"/>
  <path d="m11150,7921,11,34-47,16-48,16-11-34,47-16,48-16z"/>
  <path d="m11114,7971,47-16,1,6-48,10z"/>
  <path d="m11162,7961,16,76-49,10-49,10-15-76,49-10,48-10z"/>
  <path d="m11129,8047,49-10,1,7-50,3z"/>
  <path d="m11179,8044,6,88-50,3-50,3-6-88,50-3,50-3z"/>
  <path d="m11135,8135,0,50-9-1-8-2-8-4-7-5-6-6-5-7-4-8-2-8-1-6,50-3z"/>
  <path d="m11135,8085,3250,0,0,50,0,50-3250,0,0-50,0-50z"/>
  <path d="m14385,8135,0-50,9,1,8,2,8,4,7,5,6,6,5,7,4,8,2,8,1,9,0,0-50,0z"/>
  <path d="m14435,8135,0,3500-50,0-50,0,0-3500,50,0,50,0z"/>
  <path d="m14385,11635,50,0-1,9-2,8-4,8-5,7-6,6-7,5-8,4-8,2-9,1,0,0,0-50z"/>
  <path d="m14385,11685-6000,0,0-50,0-50,6000,0,0,50,0,50z"/>
  <path d="m8385,11635,0,50-9-1-8-2-8-4-7-5-6-6-5-7-4-8-2-8-1-9,0,0,50,0z"/>
  <path d="m8335,11635,0-3500,50,0,50,0,0,3500-50,0-50,0z"/>
  <path d="m8385,8135-50,0,1-9,2-8,4-8,5-7,6-6,7-5,8-4,8-2,9-1,0,0,0,50z"/>
 </g>
 <g style="fill:#000000;" transform="matrix(0.06784295,0,0,0.06660509,-75.085352,-51.884202)">
  <path d="m4132,10685-76-4,2-50,3-50,77,4-3,50-3,50z"/>
  <path d="m4058,10631-2,50-5,0,7-50z"/>
  <path d="m4051,10681-75-12,8-49,7-50,75,12-8,49-7,50z"/>
  <path d="m3984,10620-8,49-5-1,13-48z"/>
  <path d="m3971,10668-71-18,12-49,13-48,71,18-12,49-13,48z"/>
  <path d="m3912,10601-12,49-5-2,17-47z"/>
  <path d="m3895,10648-69-25,17-47,17-47,69,25-17,47-17,47z"/>
  <path d="m3843,10576-17,47-5-2,22-45z"/>
  <path d="m3821,10621-65-32,22-45,21-45,66,32-22,45-22,45z"/>
  <path d="m3778,10544-22,45-4-2,26-43z"/>
  <path d="m3752,10587-62-37,26-43,26-43,62,38-26,42-26,43z"/>
  <path d="m3716,10507-26,43-4-3,30-40z"/>
  <path d="m3686,10547-58-43,30-40,30-40,58,43-30,40-30,40z"/>
  <path d="m3658,10464-30,40-4-3,34-37z"/>
  <path d="m3624,10501-53-49,34-37,33-37,54,49-34,37-34,37z"/>
  <path d="m3605,10415-34,37-3-3,37-34z"/>
  <path d="m3568,10449-49-53,37-34,37-34,49,54-37,33-37,34z"/>
  <path d="m3556,10362-37,34-3-4,40-30z"/>
  <path d="m3516,10392-43-58,40-30,40-30,43,58-40,30-40,30z"/>
  <path d="m3513,10304-40,30-3-4,43-26z"/>
  <path d="m3470,10330-37-62,43-26,42-26,38,62-43,26-43,26z"/>
  <path d="m3476,10242-43,26-2-4,45-22z"/>
  <path d="m3431,10264-32-65,45-22,45-22,32,66-45,21-45,22z"/>
  <path d="m3444,10177-45,22-2-5,47-17z"/>
  <path d="m3397,10194-25-69,47-17,47-17,25,69-47,17-47,17z"/>
  <path d="m3419,10108-47,17-2-5,49-12z"/>
  <path d="m3370,10120-18-71,48-13,49-12,18,71-48,13-49,12z"/>
  <path d="m3400,10036-48,13-1-5,49-8z"/>
  <path d="m3351,10044-12-75,50-7,49-8,12,75-50,7-49,8z"/>
  <path d="m3389,9962-50,7,0-5,50-2z"/>
  <path d="m3339,9964-4-76,50-3,50-3,4,77-50,3-50,2z"/>
  <path d="m3385,9885-50,3,0-6,50,3z"/>
  <path d="m3335,9882,4-76,50,2,50,3-4,77-50-3-50-3z"/>
  <path d="m3389,9808-50-2,0-5,50,7z"/>
  <path d="m3339,9801,12-75,49,8,50,7-12,75-49-8-50-7z"/>
  <path d="m3400,9734-49-8,1-5,48,13z"/>
  <path d="m3352,9721,18-71,49,12,48,13-18,71-49-12-48-13z"/>
  <path d="m3419,9662-49-12,2-5,47,17z"/>
  <path d="m3372,9645,25-69,47,17,47,17-25,69-47-17-47-17z"/>
  <path d="m3444,9593-47-17,2-5,45,22z"/>
  <path d="m3399,9571,32-65,45,22,45,21-32,66-45-22-45-22z"/>
  <path d="m3476,9528-45-22,2-4,43,26z"/>
  <path d="m3433,9502,37-62,43,26,43,26-38,62-42-26-43-26z"/>
  <path d="m3513,9466-43-26,3-4,40,30z"/>
  <path d="m3473,9436,43-58,40,30,40,30-43,58-40-30-40-30z"/>
  <path d="m3556,9408-40-30,3-4,37,34z"/>
  <path d="m3519,9374,49-53,37,34,37,33-49,54-37-34-37-34z"/>
  <path d="m3605,9355-37-34,3-3,34,37z"/>
  <path d="m3571,9318,53-49,34,37,34,37-54,49-33-37-34-37z"/>
  <path d="m3658,9306-34-37,4-3,30,40z"/>
  <path d="m3628,9266,58-43,30,40,30,40-58,43-30-40-30-40z"/>
  <path d="m3716,9263-30-40,4-3,26,43z"/>
  <path d="m3690,9220,62-37,26,43,26,42-62,38-26-43-26-43z"/>
  <path d="m3778,9226-26-43,4-2,22,45z"/>
  <path d="m3756,9181,65-32,22,45,22,45-66,32-21-45-22-45z"/>
  <path d="m3843,9194-22-45,5-2,17,47z"/>
  <path d="m3826,9147,69-25,17,47,17,47-69,25-17-47-17-47z"/>
  <path d="m3912,9169-17-47,5-2,12,49z"/>
  <path d="m3900,9120,71-18,13,48,12,49-71,18-13-48-12-49z"/>
  <path d="m3984,9150-13-48,5-1,8,49z"/>
  <path d="m3976,9101,75-12,7,50,8,49-75,12-7-50-8-49z"/>
  <path d="m4058,9139-7-50,5,0,2,50z"/>
  <path d="m4056,9089,76-4,3,50,3,50-77,4-3-50-2-50z"/>
  <path d="m4135,9135-3-50,6,0-3,50z"/>
  <path d="m4138,9085,76,4-2,50-3,50-77-4,3-50,3-50z"/>
  <path d="m4212,9139,2-50,5,0-7,50z"/>
  <path d="m4219,9089,75,12-8,49-7,50-75-12,8-49,7-50z"/>
  <path d="m4286,9150,8-49,5,1-13,48z"/>
  <path d="m4299,9102,71,18-12,49-13,48-71-18,12-49,13-48z"/>
  <path d="m4358,9169,12-49,5,2-17,47z"/>
  <path d="m4375,9122,69,25-17,47-17,47-69-25,17-47,17-47z"/>
  <path d="m4427,9194,17-47,5,2-22,45z"/>
  <path d="m4449,9149,65,32-22,45-21,45-66-32,22-45,22-45z"/>
  <path d="m4492,9226,22-45,4,2-26,43z"/>
  <path d="m4518,9183,62,37-26,43-26,43-62-38,26-42,26-43z"/>
  <path d="m4554,9263,26-43,4,3-30,40z"/>
  <path d="m4584,9223,58,43-30,40-30,40-58-43,30-40,30-40z"/>
  <path d="m4612,9306,30-40,4,3-34,37z"/>
  <path d="m4646,9269,53,49-34,37-33,37-54-49,34-37,34-37z"/>
  <path d="m4665,9355,34-37,3,3-37,34z"/>
  <path d="m4702,9321,49,53-37,34-37,34-49-54,37-33,37-34z"/>
  <path d="m4714,9408,37-34,3,4-40,30z"/>
  <path d="m4754,9378,43,58-40,30-40,30-43-58,40-30,40-30z"/>
  <path d="m4757,9466,40-30,3,4-43,26z"/>
  <path d="m4800,9440,37,62-43,26-42,26-38-62,43-26,43-26z"/>
  <path d="m4794,9528,43-26,2,4-45,22z"/>
  <path d="m4839,9506,32,65-45,22-45,22-32-66,45-21,45-22z"/>
  <path d="m4826,9593,45-22,2,5-47,17z"/>
  <path d="m4873,9576,25,69-47,17-47,17-25-69,47-17,47-17z"/>
  <path d="m4851,9662,47-17,2,5-49,12z"/>
  <path d="m4900,9650,18,71-48,13-49,12-18-71,48-13,49-12z"/>
  <path d="m4870,9734,48-13,1,5-49,8z"/>
  <path d="m4919,9726,12,75-50,7-49,8-12-75,50-7,49-8z"/>
  <path d="m4881,9808,50-7,0,5-50,2z"/>
  <path d="m4931,9806,4,76-50,3-50,3-4-77,50-3,50-2z"/>
  <path d="m4885,9885,50-3,0,6-50-3z"/>
  <path d="m4935,9888-4,76-50-2-50-3,4-77,50,3,50,3z"/>
  <path d="m4881,9962,50,2,0,5-50-7z"/>
  <path d="m4931,9969-12,75-49-8-50-7,12-75,49,8,50,7z"/>
  <path d="m4870,10036,49,8-1,5-48-13z"/>
  <path d="m4918,10049-18,71-49-12-48-13,18-71,49,12,48,13z"/>
  <path d="m4851,10108,49,12-2,5-47-17z"/>
  <path d="m4898,10125-25,69-47-17-47-17,25-69,47,17,47,17z"/>
  <path d="m4826,10177,47,17-2,5-45-22z"/>
  <path d="m4871,10199-32,65-45-22-45-21,32-66,45,22,45,22z"/>
  <path d="m4794,10242,45,22-2,4-43-26z"/>
  <path d="m4837,10268-37,62-43-26-43-26,38-62,42,26,43,26z"/>
  <path d="m4757,10304,43,26-3,4-40-30z"/>
  <path d="m4797,10334-43,58-40-30-40-30,43-58,40,30,40,30z"/>
  <path d="m4714,10362,40,30-3,4-37-34z"/>
  <path d="m4751,10396-49,53-37-34-37-33,49-54,37,34,37,34z"/>
  <path d="m4665,10415,37,34-3,3-34-37z"/>
  <path d="m4699,10452-53,49-34-37-34-37,54-49,33,37,34,37z"/>
  <path d="m4612,10464,34,37-4,3-30-40z"/>
  <path d="m4642,10504-58,43-30-40-30-40,58-43,30,40,30,40z"/>
  <path d="m4554,10507,30,40-4,3-26-43z"/>
  <path d="m4580,10550-62,37-26-43-26-42,62-38,26,43,26,43z"/>
  <path d="m4492,10544,26,43-4,2-22-45z"/>
  <path d="m4514,10589-65,32-22-45-22-45,66-32,21,45,22,45z"/>
  <path d="m4427,10576,22,45-5,2-17-47z"/>
  <path d="m4444,10623-69,25-17-47-17-47,69-25,17,47,17,47z"/>
  <path d="m4358,10601,17,47-5,2-12-49z"/>
  <path d="m4370,10650-71,18-13-48-12-49,71-18,13,48,12,49z"/>
  <path d="m4286,10620,13,48-5,1-8-49z"/>
  <path d="m4294,10669-75,12-7-50-8-49,75-12,7,50,8,49z"/>
  <path d="m4212,10631,7,50-5,0-2-50z"/>
  <path d="m4214,10681-76,4-3-50-3-50,77-4,3,50,2,50z"/>
  <path d="m4135,10635,3,50-6,0,3-50z"/>
 </g>
 <g transform="matrix(0.06784295,0,0,0.06660509,-75.085352,-51.884202)">
  <path d="m14135,8885,500,0,0,1750-500,0,0-1750z" style="fill:#ffffff;"/>
  <g style="fill:#ff0000;">
   <path d="m14385,10685-250,0,0-50,0-50,250,0,0,50,0,50z"/>
   <path d="m14135,10635,0,50-9-1-8-2-8-4-7-5-6-6-5-7-4-8-2-8-1-9,0,0,50,0z"/>
   <path d="m14085,10635,0-1750,50,0,50,0,0,1750-50,0-50,0z"/>
   <path d="m14135,8885-50,0,1-9,2-8,4-8,5-7,6-6,7-5,8-4,8-2,9-1,0,0,0,50z"/>
   <path d="m14135,8835,500,0,0,50,0,50-500,0,0-50,0-50z"/>
   <path d="m14635,8885,0-50,9,1,8,2,8,4,7,5,6,6,5,7,4,8,2,8,1,9,0,0-50,0z"/>
   <path d="m14685,8885,0,1750-50,0-50,0,0-1750,50,0,50,0z"/>
   <path d="m14635,10635,50,0-1,9-2,8-4,8-5,7-6,6-7,5-8,4-8,2-9,1,0,0,0-50z"/>
   <path d="m14635,10685-250,0,0-50,0-50,250,0,0,50,0,50z"/>
  </g>
 </g>
 <g style="fill:#ff0000;" transform="matrix(0.06784295,0,0,0.06660509,-75.085352,-51.884202)">
  <path d="m12435,8135,0,1500-50,0-50,0,0-1500,50,0,50,0z"/>
  <path d="m12385,9635,0,50-9-1-8-2-8-4-7-5-6-6-5-7-4-8-2-8-1-9,0,0,50,0z"/>
  <path d="m12385,9585,500,0,0,50,0,50-500,0,0-50,0-50z"/>
  <path d="m12885,9685-1000,0,0-50,0-50,1000,0,0,50,0,50z"/>
 </g>
 <g style="fill:#ff0000;" transform="matrix(0.06784295,0,0,0.06660509,-75.085352,-51.884202)">
  <path d="m12335,11635,0-1750,50,0,50,0,0,1750-50,0-50,0z"/>
  <path d="m12385,9885-50,0,1-9,2-8,4-8,5-7,6-6,7-5,8-4,8-2,9-1,0,0,0,50z"/>
  <path d="m12385,9835,500,0,0,50,0,50-500,0,0-50,0-50z"/>
  <path d="m12885,9935-1000,0,0-50,0-50,1000,0,0,50,0,50z"/>
 </g>
 <path d="m459.86,569.87,67.843,0,0,6.6604-67.843,0,0-6.6604z" style="fill:#ff0000;"/>
 <g style="fill:#ff0000;" transform="matrix(0.06784295,0,0,0.06660509,-75.085352,-51.884202)">
  <path d="m7843,10107,500-750,42,28,42,28-500,750-42-28-42-28z"/>
  <path d="m8385,9385-42-28,6-7,6-5,8-5,8-3,9-2,8,0,9,1,8,3,8,4,7,6,5,6,2,2-42,28z"/>
  <path d="m8427,9357,500,750-42,28-42,28-500-750,42-28,42-28z"/>
  <path d="m8885,10135,42-28,4,8,3,8,1,9,0,8-2,9-3,8-5,8-5,6-7,6-8,4-8,3-9,1-3,0,0-50z"/>
  <path d="m8885,10185-1000,0,0-50,0-50,1000,0,0,50,0,50z"/>
  <path d="m7885,10135,0,50-9-1-8-2-8-4-7-5-6-6-5-7-4-8-2-8-1-9,1-9,2-8,4-8,1-3,42,28z"/>
 </g>
 <g style="fill:#ff0000;" transform="matrix(0.06784295,0,0,0.06660509,-75.085352,-51.884202)">
  <path d="m10385,6060-2000,0,0-50,0-50,2000,0,0,50,0,50z"/>
  <path d="m8385,6060-4250,0,0-50,0-50,4250,0,0,50,0,50z"/>
  <path d="m4135,6010,0,50-9-1-8-2-8-4-7-5-6-6-5-7-4-8-2-8-1-9,0,0,50,0z"/>
  <path d="m4085,6010,0-3500,50,0,50,0,0,3500-50,0-50,0z"/>
  <path d="m4135,2510-50,0,1-9,2-8,4-8,5-7,6-6,7-5,8-4,8-2,9-1,0,0,0,50z"/>
  <path d="m4135,2460,1500,0,0,50,0,50-1500,0,0-50,0-50z"/>
  <path d="m5635,2460,1572.5-73.866,0,50,0,50l-1572.5,73.9v-50-50z" nodetypes="ccccccc"/>
  <g style="fill-rule:evenodd;" transform="matrix(0,-1.248978,1.203817,0,-2144.093,12975.75)">
   <path d="m8198,5573,375,0-188,562-187-562z"/>
   <path d="m8410,5635,0,50-50,0,0-50,50,0z"/>
  </g>
  <g style="fill-rule:evenodd;" transform="matrix(0,-1.248978,1.203817,0,4785.296,12985.98)">
   <path d="m8198,5573,375,0-188,562-187-562z"/>
   <path d="m8410,5635,0,50-50,0,0-50,50,0z"/>
  </g>
  <g style="fill-rule:evenodd;" transform="matrix(0,-1.248978,1.203817,0,4721.835,18605.85)">
   <path d="m8198,5573,375,0-188,562-187-562z"/>
   <path d="m8410,5635,0,50-50,0,0-50,50,0z"/>
  </g>
  <g style="fill-rule:evenodd;" transform="matrix(-1.226189,0,0,-1.22619,18663.63,18082.11)">
   <path d="m8198,5573,375,0-188,562-187-562z"/>
   <path d="m8410,5635,0,50-50,0,0-50,50,0z"/>
  </g>
 </g>
 <g style="fill:#ff0000;" transform="matrix(0.06784295,0,0,0.06660509,-75.085352,-51.884202)">
  <path d="m7135,2460,2500,0,0,50,0,50-2500,0,0-50,0-50z"/>
  <path d="m9635,2510,50,3-1,9-3,8-4,8-6,7-6,5-8,5-8,3-8,2-6,0,0-50z"/>
  <path d="m9585,2507,6-88,50,3,50,3-6,88-50-3-50-3z"/>
  <path d="m9641,2422-50-3,1-7,49,10z"/>
  <path d="m9592,2412,16-76,48,10,49,10-15,76-49-10-49-10z"/>
  <path d="m9656,2346-48-10,1-6,47,16z"/>
  <path d="m9609,2330,11-34,48,16,47,16-11,34-48-16-47-16z"/>
  <path d="m9668,2312-48-16,2-4,46,20z"/>
  <path d="m9622,2292,13-30,46,19,46,20-13,31-46-20-46-20z"/>
  <path d="m9681,2281-46-19,2-4,44,23z"/>
  <path d="m9637,2258,15-28,44,24,44,24-15,27-44-24-44-23z"/>
  <path d="m9696,2254-44-24,3-4,41,28z"/>
  <path d="m9655,2226,17-25,41,28,42,28-17,25-42-28-41-28z"/>
  <path d="m9713,2229-41-28,3-4,38,32z"/>
  <path d="m9675,2197,18-22,38,32,39,32-18,22-39-32-38-32z"/>
  <path d="m9731,2207-38-32,4-4,34,36z"/>
  <path d="m9697,2171,19-19,35,36,35,36-20,19-35-36-34-36z"/>
  <path d="m9751,2188-35-36,4-4,31,40z"/>
  <path d="m9720,2148,21-16,31,40,30,39-20,16-31-39-31-40z"/>
  <path d="m9772,2172-31-40,5-3,26,43z"/>
  <path d="m9746,2129,21-13,26,42,26,43-21,13-26-42-26-43z"/>
  <path d="m9793,2158-26-42,5-3,21,45z"/>
  <path d="m9772,2113,23-10,21,45,20,46-22,10-21-46-21-45z"/>
  <path d="m9816,2148-21-45,5-2,16,47z"/>
  <path d="m9800,2101,23-8,15,48,16,47-23,8-15-48-16-47z"/>
  <path d="m9838,2141-15-48,6-1,9,49z"/>
  <path d="m9829,2092,23-5,10,49,9,50-23,4-10-49-9-49z"/>
  <path d="m9862,2136-10-49,6,0,4,49z"/>
  <path d="m9858,2087,24-2,3,50,3,50-23,1-3-50-4-49z"/>
  <path d="m9885,2135-3-50,6,0-3,50z"/>
  <path d="m9888,2085,24,2-4,49-3,50-23-1,3-50,3-50z"/>
  <path d="m9908,2136,4-49,6,0-10,49z"/>
  <path d="m9918,2087,23,5-9,49-10,49-23-4,9-50,10-49z"/>
  <path d="m9932,2141,9-49,6,1-15,48z"/>
  <path d="m9947,2093,23,8-16,47-15,48-23-8,16-47,15-48z"/>
  <path d="m9954,2148,16-47,5,2-21,45z"/>
  <path d="m9975,2103,23,10-21,45-21,46-22-10,20-46,21-45z"/>
  <path d="m9977,2158,21-45,5,3-26,42z"/>
  <path d="m10003,2116,21,13-26,43-26,42-21-13,26-43,26-42z"/>
  <path d="m9998,2172,26-43,5,3-31,40z"/>
  <path d="m10029,2132,21,16-31,40-31,39-20-16,30-39,31-40z"/>
  <path d="m10019,2188,31-40,4,4-35,36z"/>
  <path d="m10054,2152,19,19-34,36-35,36-20-19,35-36,35-36z"/>
  <path d="m10039,2207,34-36,4,4-38,32z"/>
  <path d="m10077,2175,18,22-38,32-39,32-18-22,39-32,38-32z"/>
  <path d="m10057,2229,38-32,3,4-41,28z"/>
  <path d="m10098,2201,17,25-41,28-42,28-17-25,42-28,41-28z"/>
  <path d="m10074,2254,41-28,3,4-44,24z"/>
  <path d="m10118,2230,15,28-44,23-44,24-15-27,44-24,44-24z"/>
  <path d="m10089,2281,44-23,2,4-46,19z"/>
  <path d="m10135,2262,13,30-46,20-46,20-13-31,46-20,46-19z"/>
  <path d="m10102,2312,46-20,2,4-48,16z"/>
  <path d="m10150,2296,11,34-47,16-48,16-11-34,47-16,48-16z"/>
  <path d="m10114,2346,47-16,1,6-48,10z"/>
  <path d="m10162,2336,16,76-49,10-49,10-15-76,49-10,48-10z"/>
  <path d="m10129,2422,49-10,1,7-50,3z"/>
  <path d="m10179,2419,6,88-50,3-50,3-6-88,50-3,50-3z"/>
  <path d="m10135,2510,50,3-1,9-3,8-4,8-6,7-6,5-8,5-8,3-8,2-9,0-9-1-8-3-8-4-7-6-5-6-5-8-3-8-2-8,0-3,50-3z"/>
  <path d="m10085,2507,6-88,50,3,50,3-6,88-50-3-50-3z"/>
  <path d="m10141,2422-50-3,1-7,49,10z"/>
  <path d="m10092,2412,16-76,48,10,49,10-15,76-49-10-49-10z"/>
  <path d="m10156,2346-48-10,1-6,47,16z"/>
  <path d="m10109,2330,11-34,48,16,47,16-11,34-48-16-47-16z"/>
  <path d="m10168,2312-48-16,2-4,46,20z"/>
  <path d="m10122,2292,13-30,46,19,46,20-13,31-46-20-46-20z"/>
  <path d="m10181,2281-46-19,2-4,44,23z"/>
  <path d="m10137,2258,15-28,44,24,44,24-15,27-44-24-44-23z"/>
  <path d="m10196,2254-44-24,3-4,41,28z"/>
  <path d="m10155,2226,17-25,41,28,42,28-17,25-42-28-41-28z"/>
  <path d="m10213,2229-41-28,3-4,38,32z"/>
  <path d="m10175,2197,18-22,38,32,39,32-18,22-39-32-38-32z"/>
  <path d="m10231,2207-38-32,4-4,34,36z"/>
  <path d="m10197,2171,19-19,35,36,35,36-20,19-35-36-34-36z"/>
  <path d="m10251,2188-35-36,4-4,31,40z"/>
  <path d="m10220,2148,21-16,31,40,30,39-20,16-31-39-31-40z"/>
  <path d="m10272,2172-31-40,5-3,26,43z"/>
  <path d="m10246,2129,21-13,26,42,26,43-21,13-26-42-26-43z"/>
  <path d="m10293,2158-26-42,5-3,21,45z"/>
  <path d="m10272,2113,23-10,21,45,20,46-22,10-21-46-21-45z"/>
  <path d="m10316,2148-21-45,5-2,16,47z"/>
  <path d="m10300,2101,23-8,15,48,16,47-23,8-15-48-16-47z"/>
  <path d="m10338,2141-15-48,6-1,9,49z"/>
  <path d="m10329,2092,23-5,10,49,9,50-23,4-10-49-9-49z"/>
  <path d="m10362,2136-10-49,6,0,4,49z"/>
  <path d="m10358,2087,24-2,3,50,3,50-23,1-3-50-4-49z"/>
  <path d="m10385,2135-3-50,6,0-3,50z"/>
  <path d="m10388,2085,24,2-4,49-3,50-23-1,3-50,3-50z"/>
  <path d="m10408,2136,4-49,6,0-10,49z"/>
  <path d="m10418,2087,23,5-9,49-10,49-23-4,9-50,10-49z"/>
  <path d="m10432,2141,9-49,6,1-15,48z"/>
  <path d="m10447,2093,23,8-16,47-15,48-23-8,16-47,15-48z"/>
  <path d="m10454,2148,16-47,5,2-21,45z"/>
  <path d="m10475,2103,23,10-21,45-21,46-22-10,20-46,21-45z"/>
  <path d="m10477,2158,21-45,5,3-26,42z"/>
  <path d="m10503,2116,21,13-26,43-26,42-21-13,26-43,26-42z"/>
  <path d="m10498,2172,26-43,5,3-31,40z"/>
  <path d="m10529,2132,21,16-31,40-31,39-20-16,30-39,31-40z"/>
  <path d="m10519,2188,31-40,4,4-35,36z"/>
  <path d="m10554,2152,19,19-34,36-35,36-20-19,35-36,35-36z"/>
  <path d="m10539,2207,34-36,4,4-38,32z"/>
  <path d="m10577,2175,18,22-38,32-39,32-18-22,39-32,38-32z"/>
  <path d="m10557,2229,38-32,3,4-41,28z"/>
  <path d="m10598,2201,17,25-41,28-42,28-17-25,42-28,41-28z"/>
  <path d="m10574,2254,41-28,3,4-44,24z"/>
  <path d="m10618,2230,15,28-44,23-44,24-15-27,44-24,44-24z"/>
  <path d="m10589,2281,44-23,2,4-46,19z"/>
  <path d="m10635,2262,13,30-46,20-46,20-13-31,46-20,46-19z"/>
  <path d="m10602,2312,46-20,2,4-48,16z"/>
  <path d="m10650,2296,11,34-47,16-48,16-11-34,47-16,48-16z"/>
  <path d="m10614,2346,47-16,1,6-48,10z"/>
  <path d="m10662,2336,16,76-49,10-49,10-15-76,49-10,48-10z"/>
  <path d="m10629,2422,49-10,1,7-50,3z"/>
  <path d="m10679,2419,6,88-50,3-50,3-6-88,50-3,50-3z"/>
  <path d="m10635,2510,50,3-1,9-3,8-4,8-6,7-6,5-8,5-8,3-8,2-9,0-9-1-8-3-8-4-7-6-5-6-5-8-3-8-2-8,0-3,50-3z"/>
  <path d="m10585,2507,6-88,50,3,50,3-6,88-50-3-50-3z"/>
  <path d="m10641,2422-50-3,1-7,49,10z"/>
  <path d="m10592,2412,16-76,48,10,49,10-15,76-49-10-49-10z"/>
  <path d="m10656,2346-48-10,1-6,47,16z"/>
  <path d="m10609,2330,11-34,48,16,47,16-11,34-48-16-47-16z"/>
  <path d="m10668,2312-48-16,2-4,46,20z"/>
  <path d="m10622,2292,13-30,46,19,46,20-13,31-46-20-46-20z"/>
  <path d="m10681,2281-46-19,2-4,44,23z"/>
  <path d="m10637,2258,15-28,44,24,44,24-15,27-44-24-44-23z"/>
  <path d="m10696,2254-44-24,3-4,41,28z"/>
  <path d="m10655,2226,17-25,41,28,42,28-17,25-42-28-41-28z"/>
  <path d="m10713,2229-41-28,3-4,38,32z"/>
  <path d="m10675,2197,18-22,38,32,39,32-18,22-39-32-38-32z"/>
  <path d="m10731,2207-38-32,4-4,34,36z"/>
  <path d="m10697,2171,19-19,35,36,35,36-20,19-35-36-34-36z"/>
  <path d="m10751,2188-35-36,4-4,31,40z"/>
  <path d="m10720,2148,21-16,31,40,30,39-20,16-31-39-31-40z"/>
  <path d="m10772,2172-31-40,5-3,26,43z"/>
  <path d="m10746,2129,21-13,26,42,26,43-21,13-26-42-26-43z"/>
  <path d="m10793,2158-26-42,5-3,21,45z"/>
  <path d="m10772,2113,23-10,21,45,20,46-22,10-21-46-21-45z"/>
  <path d="m10816,2148-21-45,5-2,16,47z"/>
  <path d="m10800,2101,23-8,15,48,16,47-23,8-15-48-16-47z"/>
  <path d="m10838,2141-15-48,6-1,9,49z"/>
  <path d="m10829,2092,23-5,10,49,9,50-23,4-10-49-9-49z"/>
  <path d="m10862,2136-10-49,6,0,4,49z"/>
  <path d="m10858,2087,24-2,3,50,3,50-23,1-3-50-4-49z"/>
  <path d="m10885,2135-3-50,6,0-3,50z"/>
  <path d="m10888,2085,24,2-4,49-3,50-23-1,3-50,3-50z"/>
  <path d="m10908,2136,4-49,6,0-10,49z"/>
  <path d="m10918,2087,23,5-9,49-10,49-23-4,9-50,10-49z"/>
  <path d="m10932,2141,9-49,6,1-15,48z"/>
  <path d="m10947,2093,23,8-16,47-15,48-23-8,16-47,15-48z"/>
  <path d="m10954,2148,16-47,5,2-21,45z"/>
  <path d="m10975,2103,23,10-21,45-21,46-22-10,20-46,21-45z"/>
  <path d="m10977,2158,21-45,5,3-26,42z"/>
  <path d="m11003,2116,21,13-26,43-26,42-21-13,26-43,26-42z"/>
  <path d="m10998,2172,26-43,5,3-31,40z"/>
  <path d="m11029,2132,21,16-31,40-31,39-20-16,30-39,31-40z"/>
  <path d="m11019,2188,31-40,4,4-35,36z"/>
  <path d="m11054,2152,19,19-34,36-35,36-20-19,35-36,35-36z"/>
  <path d="m11039,2207,34-36,4,4-38,32z"/>
  <path d="m11077,2175,18,22-38,32-39,32-18-22,39-32,38-32z"/>
  <path d="m11057,2229,38-32,3,4-41,28z"/>
  <path d="m11098,2201,17,25-41,28-42,28-17-25,42-28,41-28z"/>
  <path d="m11074,2254,41-28,3,4-44,24z"/>
  <path d="m11118,2230,15,28-44,23-44,24-15-27,44-24,44-24z"/>
  <path d="m11089,2281,44-23,2,4-46,19z"/>
  <path d="m11135,2262,13,30-46,20-46,20-13-31,46-20,46-19z"/>
  <path d="m11102,2312,46-20,2,4-48,16z"/>
  <path d="m11150,2296,11,34-47,16-48,16-11-34,47-16,48-16z"/>
  <path d="m11114,2346,47-16,1,6-48,10z"/>
  <path d="m11162,2336,16,76-49,10-49,10-15-76,49-10,48-10z"/>
  <path d="m11129,2422,49-10,1,7-50,3z"/>
  <path d="m11179,2419,6,88-50,3-50,3-6-88,50-3,50-3z"/>
  <path d="m11135,2510,0,50-9-1-8-2-8-4-7-5-6-6-5-7-4-8-2-8-1-6,50-3z"/>
  <path d="m11135,2460,3250,0,0,50,0,50-3250,0,0-50,0-50z"/>
  <path d="m14385,2510,0-50,9,1,8,2,8,4,7,5,6,6,5,7,4,8,2,8,1,9,0,0-50,0z"/>
  <path d="m14435,2510,0,3500-50,0-50,0,0-3500,50,0,50,0z"/>
  <path d="m14385,6010,50,0-1,9-2,8-4,8-5,7-6,6-7,5-8,4-8,2-9,1,0,0,0-50z"/>
  <path d="m14385,6060-6000,0,0-50,0-50,6000,0,0,50,0,50z"/>
 </g>
 <g style="fill:#ff0000;" transform="matrix(0.06784295,0,0,0.06660509,-75.085352,-51.884202)">
  <path d="m4132,5060-76-4,2-50,3-50,77,4-3,50-3,50z"/>
  <path d="m4058,5006-2,50-5,0,7-50z"/>
  <path d="m4051,5056-75-12,8-49,7-50,75,12-8,49-7,50z"/>
  <path d="m3984,4995-8,49-5-1,13-48z"/>
  <path d="m3971,5043-71-18,12-49,13-48,71,18-12,49-13,48z"/>
  <path d="m3912,4976-12,49-5-2,17-47z"/>
  <path d="m3895,5023-69-25,17-47,17-47,69,25-17,47-17,47z"/>
  <path d="m3843,4951-17,47-5-2,22-45z"/>
  <path d="m3821,4996-65-32,22-45,21-45,66,32-22,45-22,45z"/>
  <path d="m3778,4919-22,45-4-2,26-43z"/>
  <path d="m3752,4962-62-37,26-43,26-43,62,38-26,42-26,43z"/>
  <path d="m3716,4882-26,43-4-3,30-40z"/>
  <path d="m3686,4922-58-43,30-40,30-40,58,43-30,40-30,40z"/>
  <path d="m3658,4839-30,40-4-3,34-37z"/>
  <path d="m3624,4876-53-49,34-37,33-37,54,49-34,37-34,37z"/>
  <path d="m3605,4790-34,37-3-3,37-34z"/>
  <path d="m3568,4824-49-53,37-34,37-34,49,54-37,33-37,34z"/>
  <path d="m3556,4737-37,34-3-4,40-30z"/>
  <path d="m3516,4767-43-58,40-30,40-30,43,58-40,30-40,30z"/>
  <path d="m3513,4679-40,30-3-4,43-26z"/>
  <path d="m3470,4705-37-62,43-26,42-26,38,62-43,26-43,26z"/>
  <path d="m3476,4617-43,26-2-4,45-22z"/>
  <path d="m3431,4639-32-65,45-22,45-22,32,66-45,21-45,22z"/>
  <path d="m3444,4552-45,22-2-5,47-17z"/>
  <path d="m3397,4569-25-69,47-17,47-17,25,69-47,17-47,17z"/>
  <path d="m3419,4483-47,17-2-5,49-12z"/>
  <path d="m3370,4495-18-71,48-13,49-12,18,71-48,13-49,12z"/>
  <path d="m3400,4411-48,13-1-5,49-8z"/>
  <path d="m3351,4419-12-75,50-7,49-8,12,75-50,7-49,8z"/>
  <path d="m3389,4337-50,7,0-5,50-2z"/>
  <path d="m3339,4339-4-76,50-3,50-3,4,77-50,3-50,2z"/>
  <path d="m3385,4260-50,3,0-6,50,3z"/>
  <path d="m3335,4257,4-76,50,2,50,3-4,77-50-3-50-3z"/>
  <path d="m3389,4183-50-2,0-5,50,7z"/>
  <path d="m3339,4176,12-75,49,8,50,7-12,75-49-8-50-7z"/>
  <path d="m3400,4109-49-8,1-5,48,13z"/>
  <path d="m3352,4096,18-71,49,12,48,13-18,71-49-12-48-13z"/>
  <path d="m3419,4037-49-12,2-5,47,17z"/>
  <path d="m3372,4020,25-69,47,17,47,17-25,69-47-17-47-17z"/>
  <path d="m3444,3968-47-17,2-5,45,22z"/>
  <path d="m3399,3946,32-65,45,22,45,21-32,66-45-22-45-22z"/>
  <path d="m3476,3903-45-22,2-4,43,26z"/>
  <path d="m3433,3877,37-62,43,26,43,26-38,62-42-26-43-26z"/>
  <path d="m3513,3841-43-26,3-4,40,30z"/>
  <path d="m3473,3811,43-58,40,30,40,30-43,58-40-30-40-30z"/>
  <path d="m3556,3783-40-30,3-4,37,34z"/>
  <path d="m3519,3749,49-53,37,34,37,33-49,54-37-34-37-34z"/>
  <path d="m3605,3730-37-34,3-3,34,37z"/>
  <path d="m3571,3693,53-49,34,37,34,37-54,49-33-37-34-37z"/>
  <path d="m3658,3681-34-37,4-3,30,40z"/>
  <path d="m3628,3641,58-43,30,40,30,40-58,43-30-40-30-40z"/>
  <path d="m3716,3638-30-40,4-3,26,43z"/>
  <path d="m3690,3595,62-37,26,43,26,42-62,38-26-43-26-43z"/>
  <path d="m3778,3601-26-43,4-2,22,45z"/>
  <path d="m3756,3556,65-32,22,45,22,45-66,32-21-45-22-45z"/>
  <path d="m3843,3569-22-45,5-2,17,47z"/>
  <path d="m3826,3522,69-25,17,47,17,47-69,25-17-47-17-47z"/>
  <path d="m3912,3544-17-47,5-2,12,49z"/>
  <path d="m3900,3495,71-18,13,48,12,49-71,18-13-48-12-49z"/>
  <path d="m3984,3525-13-48,5-1,8,49z"/>
  <path d="m3976,3476,75-12,7,50,8,49-75,12-7-50-8-49z"/>
  <path d="m4058,3514-7-50,5,0,2,50z"/>
  <path d="m4056,3464,76-4,3,50,3,50-77,4-3-50-2-50z"/>
  <path d="m4135,3510-3-50,6,0-3,50z"/>
  <path d="m4138,3460,76,4-2,50-3,50-77-4,3-50,3-50z"/>
  <path d="m4212,3514,2-50,5,0-7,50z"/>
  <path d="m4219,3464,75,12-8,49-7,50-75-12,8-49,7-50z"/>
  <path d="m4286,3525,8-49,5,1-13,48z"/>
  <path d="m4299,3477,71,18-12,49-13,48-71-18,12-49,13-48z"/>
  <path d="m4358,3544,12-49,5,2-17,47z"/>
  <path d="m4375,3497,69,25-17,47-17,47-69-25,17-47,17-47z"/>
  <path d="m4427,3569,17-47,5,2-22,45z"/>
  <path d="m4449,3524,65,32-22,45-21,45-66-32,22-45,22-45z"/>
  <path d="m4492,3601,22-45,4,2-26,43z"/>
  <path d="m4518,3558,62,37-26,43-26,43-62-38,26-42,26-43z"/>
  <path d="m4554,3638,26-43,4,3-30,40z"/>
  <path d="m4584,3598,58,43-30,40-30,40-58-43,30-40,30-40z"/>
  <path d="m4612,3681,30-40,4,3-34,37z"/>
  <path d="m4646,3644,53,49-34,37-33,37-54-49,34-37,34-37z"/>
  <path d="m4665,3730,34-37,3,3-37,34z"/>
  <path d="m4702,3696,49,53-37,34-37,34-49-54,37-33,37-34z"/>
  <path d="m4714,3783,37-34,3,4-40,30z"/>
  <path d="m4754,3753,43,58-40,30-40,30-43-58,40-30,40-30z"/>
  <path d="m4757,3841,40-30,3,4-43,26z"/>
  <path d="m4800,3815,37,62-43,26-42,26-38-62,43-26,43-26z"/>
  <path d="m4794,3903,43-26,2,4-45,22z"/>
  <path d="m4839,3881,32,65-45,22-45,22-32-66,45-21,45-22z"/>
  <path d="m4826,3968,45-22,2,5-47,17z"/>
  <path d="m4873,3951,25,69-47,17-47,17-25-69,47-17,47-17z"/>
  <path d="m4851,4037,47-17,2,5-49,12z"/>
  <path d="m4900,4025,18,71-48,13-49,12-18-71,48-13,49-12z"/>
  <path d="m4870,4109,48-13,1,5-49,8z"/>
  <path d="m4919,4101,12,75-50,7-49,8-12-75,50-7,49-8z"/>
  <path d="m4881,4183,50-7,0,5-50,2z"/>
  <path d="m4931,4181,4,76-50,3-50,3-4-77,50-3,50-2z"/>
  <path d="m4885,4260,50-3,0,6-50-3z"/>
  <path d="m4935,4263-4,76-50-2-50-3,4-77,50,3,50,3z"/>
  <path d="m4881,4337,50,2,0,5-50-7z"/>
  <path d="m4931,4344-12,75-49-8-50-7,12-75,49,8,50,7z"/>
  <path d="m4870,4411,49,8-1,5-48-13z"/>
  <path d="m4918,4424-18,71-49-12-48-13,18-71,49,12,48,13z"/>
  <path d="m4851,4483,49,12-2,5-47-17z"/>
  <path d="m4898,4500-25,69-47-17-47-17,25-69,47,17,47,17z"/>
  <path d="m4826,4552,47,17-2,5-45-22z"/>
  <path d="m4871,4574-32,65-45-22-45-21,32-66,45,22,45,22z"/>
  <path d="m4794,4617,45,22-2,4-43-26z"/>
  <path d="m4837,4643-37,62-43-26-43-26,38-62,42,26,43,26z"/>
  <path d="m4757,4679,43,26-3,4-40-30z"/>
  <path d="m4797,4709-43,58-40-30-40-30,43-58,40,30,40,30z"/>
  <path d="m4714,4737,40,30-3,4-37-34z"/>
  <path d="m4751,4771-49,53-37-34-37-33,49-54,37,34,37,34z"/>
  <path d="m4665,4790,37,34-3,3-34-37z"/>
  <path d="m4699,4827-53,49-34-37-34-37,54-49,33,37,34,37z"/>
  <path d="m4612,4839,34,37-4,3-30-40z"/>
  <path d="m4642,4879-58,43-30-40-30-40,58-43,30,40,30,40z"/>
  <path d="m4554,4882,30,40-4,3-26-43z"/>
  <path d="m4580,4925-62,37-26-43-26-42,62-38,26,43,26,43z"/>
  <path d="m4492,4919,26,43-4,2-22-45z"/>
  <path d="m4514,4964-65,32-22-45-22-45,66-32,21,45,22,45z"/>
  <path d="m4427,4951,22,45-5,2-17-47z"/>
  <path d="m4444,4998-69,25-17-47-17-47,69-25,17,47,17,47z"/>
  <path d="m4358,4976,17,47-5,2-12-49z"/>
  <path d="m4370,5025-71,18-13-48-12-49,71-18,13,48,12,49z"/>
  <path d="m4286,4995,13,48-5,1-8-49z"/>
  <path d="m4294,5044-75,12-7-50-8-49,75-12,7,50,8,49z"/>
  <path d="m4212,5006,7,50-5,0-2-50z"/>
  <path d="m4214,5056-76,4-3-50-3-50,77-4,3,50,2,50z"/>
  <path d="m4135,5010,3,50-6,0,3-50z"/>
 </g>
 <g transform="matrix(0.06784295,0,0,0.06660509,-75.085352,-51.884202)">
  <path d="m14135,3260,500,0,0,1750-500,0,0-1750z" style="fill:#ffffff;"/>
  <g style="fill:#ff0000;">
   <path d="m14385,5060-250,0,0-50,0-50,250,0,0,50,0,50z"/>
   <path d="m14135,5010,0,50-9-1-8-2-8-4-7-5-6-6-5-7-4-8-2-8-1-9,0,0,50,0z"/>
   <path d="m14085,5010,0-1750,50,0,50,0,0,1750-50,0-50,0z"/>
   <path d="m14135,3260-50,0,1-9,2-8,4-8,5-7,6-6,7-5,8-4,8-2,9-1,0,0,0,50z"/>
   <path d="m14135,3210,500,0,0,50,0,50-500,0,0-50,0-50z"/>
   <path d="m14635,3260,0-50,9,1,8,2,8,4,7,5,6,6,5,7,4,8,2,8,1,9,0,0-50,0z"/>
   <path d="m14685,3260,0,1750-50,0-50,0,0-1750,50,0,50,0z"/>
   <path d="m14635,5010,50,0-1,9-2,8-4,8-5,7-6,6-7,5-8,4-8,2-9,1,0,0,0-50z"/>
   <path d="m14635,5060-250,0,0-50,0-50,250,0,0,50,0,50z"/>
  </g>
 </g>
 <g style="fill:#ff0000;" transform="matrix(0.06784295,0,0,0.06660509,-75.085352,-51.884202)">
  <path d="m12435,2510,0,1500-50,0-50,0,0-1500,50,0,50,0z"/>
  <path d="m12385,4010,0,50-9-1-8-2-8-4-7-5-6-6-5-7-4-8-2-8-1-9,0,0,50,0z"/>
  <path d="m12385,3960,500,0,0,50,0,50-500,0,0-50,0-50z"/>
  <path d="m12885,4060-1000,0,0-50,0-50,1000,0,0,50,0,50z"/>
 </g>
 <g style="fill:#ff0000;" transform="matrix(0.06784295,0,0,0.06660509,-75.085352,-51.884202)">
  <path d="m12335,6010,0-1750,50,0,50,0,0,1750-50,0-50,0z"/>
  <path d="m12385,4260-50,0,1-9,2-8,4-8,5-7,6-6,7-5,8-4,8-2,9-1,0,0,0,50z"/>
  <path d="m12385,4210,500,0,0,50,0,50-500,0,0-50,0-50z"/>
  <path d="m12885,4310-1000,0,0-50,0-50,1000,0,0,50,0,50z"/>
 </g>
 <path d="m459.86,195.22,67.843,0,0,6.6605-67.843,0,0-6.6605z" style="fill:#000000;"/>
 <g style="fill:#000000;" transform="matrix(0.06784295,0,0,0.06660509,-75.085352,-51.884202)">
  <path d="m7843,4482,500-750,42,28,42,28-500,750-42-28-42-28z"/>
  <path d="m8385,3760-42-28,6-7,6-5,8-5,8-3,9-2,8,0,9,1,8,3,8,4,7,6,5,6,2,2-42,28z"/>
  <path d="m8427,3732,500,750-42,28-42,28-500-750,42-28,42-28z"/>
  <path d="m8885,4510,42-28,4,8,3,8,1,9,0,8-2,9-3,8-5,8-5,6-7,6-8,4-8,3-9,1-3,0,0-50z"/>
  <path d="m8885,4560-1000,0,0-50,0-50,1000,0,0,50,0,50z"/>
  <path d="m7885,4510,0,50-9-1-8-2-8-4-7-5-6-6-5-7-4-8-2-8-1-9,1-9,2-8,4-8,1-3,42,28z"/>
 </g>
 <path d="m497.17,115.29,0,233.12-6.7843,0,0-233.12,6.7843,0z" style="fill:#000000;"/>
</svg>