<svg width="208mm" height="82mm" version="1.1" viewBox="0 0 208 81" xmlns="http://www.w3.org/2000/svg" xmlns:xlink="http://www.w3.org/1999/xlink"><rect width="208" height="82" fill="#fff"/>
 <g fill="none" stroke="#000"><path d="m100 47h-15m59 1h18m-18 3h18" stroke-width="1.5"/><circle cx="28" cy="51" r="8"/><path d="m179 40h8v22h-8z"/><path d="m93 47 7 11h-14z"/></g>
 <path id="a" d="m17 39-3-2-3 2 3-9z"/><use transform="translate(90 10)" xlink:href="#a"/><use transform="matrix(0-1-1 0 142 39)" xlink:href="#a"/><use transform="rotate(90 52 63)" xlink:href="#a"/><use transform="translate(178)" xlink:href="#a"/><circle id="b" cx="93" cy="78" r="2"/><use transform="translate(60)" xlink:href="#b"/><use transform="translate(0-53)" xlink:href="#b"/><use transform="translate(60-53)" xlink:href="#b"/><path d="m121 16h18m44 46v16h-155v-53h26l13-5m116 20v-15h-42c0-6-8-6-8 0 0-6-8-6-8 0 0-6-7-6-7 0h-52m87 0v23m-60-23v53m60-27v27m-139-42v31m90-21v18m88-28v32" fill="none" stroke="#000"/><use transform="rotate(-90 58-28)" xlink:href="#a"/> <use transform="translate(79 33)" xlink:href="#a"/>
 <g font-family="Times" font-style="italic" font-size="12px"><text x="74" y="54">D</text><text x="134" y="53">C</text><text x="168" y="53">R</text><text x="126" y="34">L</text><text x="3" y="52">V<tspan dy="3" font-size="8px">i</tspan></text><text x="193" y="54">V<tspan dy="3" font-size="8px">o</tspan></text><text x="107" y="58">V<tspan dy="3" font-size="8px">D</tspan></text><text x="61" y="17">S</text><text x="104" y="19">I<tspan dy="3" font-size="8px">L</tspan></text><text x="78" y="19">I<tspan dy="3" font-size="8px">S</tspan></text><text x="80" y="68">I<tspan dy="3" font-size="8px">D</tspan></text><text x="123" y="11">V<tspan dy="3" font-size="8px">L</tspan></text></g></svg>